TITLE ""
FILE "DISC1Track32.mp3" MP3
  TRACK 01 AUDIO
    TITLE "DISC1Track32_01"
    INDEX 01 00:00:00
  TRACK 02 AUDIO
    TITLE "DISC1Track32_02"
    INDEX 01 00:01:31
  TRACK 03 AUDIO
    TITLE "DISC1Track32_03"
    INDEX 01 00:01:45
  TRACK 04 AUDIO
    TITLE "DISC1Track32_04"
    INDEX 01 00:05:62
  TRACK 05 AUDIO
    TITLE "DISC1Track32_05"
    INDEX 01 00:09:29
  TRACK 06 AUDIO
    TITLE "DISC1Track32_06"
    INDEX 01 00:12:47
  TRACK 07 AUDIO
    TITLE "DISC1Track32_07"
    INDEX 01 00:12:62
  TRACK 08 AUDIO
    TITLE "DISC1Track32_08"
    INDEX 01 00:15:73
  TRACK 09 AUDIO
    TITLE "DISC1Track32_09"
    INDEX 01 00:18:30
  TRACK 10 AUDIO
    TITLE "DISC1Track32_10"
    INDEX 01 00:20:31
  TRACK 11 AUDIO
    TITLE "DISC1Track32_11"
    INDEX 01 00:20:44
  TRACK 12 AUDIO
    TITLE "DISC1Track32_12"
    INDEX 01 00:23:52
  TRACK 13 AUDIO
    TITLE "DISC1Track32_13"
    INDEX 01 00:27:13
  TRACK 14 AUDIO
    TITLE "DISC1Track32_14"
    INDEX 01 00:30:25
  TRACK 15 AUDIO
    TITLE "DISC1Track32_15"
    INDEX 01 00:30:43
  TRACK 16 AUDIO
    TITLE "DISC1Track32_16"
    INDEX 01 00:33:37
  TRACK 17 AUDIO
    TITLE "DISC1Track32_17"
    INDEX 01 00:35:60
  TRACK 18 AUDIO
    TITLE "DISC1Track32_18"
    INDEX 01 00:37:57
  TRACK 19 AUDIO
    TITLE "DISC1Track32_19"
    INDEX 01 00:37:72
  TRACK 20 AUDIO
    TITLE "DISC1Track32_20"
    INDEX 01 00:40:06
  TRACK 21 AUDIO
    TITLE "DISC1Track32_21"
    INDEX 01 00:42:15
  TRACK 22 AUDIO
    TITLE "DISC1Track32_22"
    INDEX 01 00:43:71
  TRACK 23 AUDIO
    TITLE "DISC1Track32_23"
    INDEX 01 00:44:13
  TRACK 24 AUDIO
    TITLE "DISC1Track32_24"
    INDEX 01 00:46:73
  TRACK 25 AUDIO
    TITLE "DISC1Track32_25"
    INDEX 01 00:49:70
  TRACK 26 AUDIO
    TITLE "DISC1Track32_26"
    INDEX 01 00:52:46
  TRACK 27 AUDIO
    TITLE "DISC1Track32_27"
    INDEX 01 00:52:62
  TRACK 28 AUDIO
    TITLE "DISC1Track32_28"
    INDEX 01 00:56:09
  TRACK 29 AUDIO
    TITLE "DISC1Track32_29"
    INDEX 01 00:58:72
  TRACK 30 AUDIO
    TITLE "DISC1Track32_30"
    INDEX 01 01:01:30
  TRACK 31 AUDIO
    TITLE "DISC1Track32_31"
    INDEX 01 01:01:41
  TRACK 32 AUDIO
    TITLE "DISC1Track32_32"
    INDEX 01 01:05:55
  TRACK 33 AUDIO
    TITLE "DISC1Track32_33"
    INDEX 01 01:09:02
  TRACK 34 AUDIO
    TITLE "DISC1Track32_34"
    INDEX 01 01:11:65
  TRACK 35 AUDIO
    TITLE "DISC1Track32_35"
    INDEX 01 01:12:10
  TRACK 36 AUDIO
    TITLE "DISC1Track32_36"
    INDEX 01 01:15:16
  TRACK 37 AUDIO
    TITLE "DISC1Track32_37"
    INDEX 01 01:18:14
  TRACK 38 AUDIO
    TITLE "DISC1Track32_38"
    INDEX 01 01:20:58
  TRACK 39 AUDIO
    TITLE "DISC1Track32_39"
    INDEX 01 01:20:74
  TRACK 40 AUDIO
    TITLE "DISC1Track32_40"
    INDEX 01 01:23:61
  TRACK 41 AUDIO
    TITLE "DISC1Track32_41"
    INDEX 01 01:26:63
  TRACK 42 AUDIO
    TITLE "DISC1Track32_42"
    INDEX 01 01:29:40
  TRACK 43 AUDIO
    TITLE "DISC1Track32_43"
    INDEX 01 01:29:55
  TRACK 44 AUDIO
    TITLE "DISC1Track32_44"
    INDEX 01 01:32:60
  TRACK 45 AUDIO
    TITLE "DISC1Track32_45"
    INDEX 01 01:36:30
  TRACK 46 AUDIO
    TITLE "DISC1Track32_46"
    INDEX 01 01:39:40
